<?xml version="1.0" encoding="UTF-8" standalone="no"?>
<svg
   xmlns:dc="http://purl.org/dc/elements/1.1/"
   xmlns:cc="http://creativecommons.org/ns#"
   xmlns:rdf="http://www.w3.org/1999/02/22-rdf-syntax-ns#"
   xmlns:svg="http://www.w3.org/2000/svg"
   xmlns="http://www.w3.org/2000/svg"
   xmlns:sodipodi="http://sodipodi.sourceforge.net/DTD/sodipodi-0.dtd"
   xmlns:inkscape="http://www.inkscape.org/namespaces/inkscape"
   width="64pt"
   height="64pt"
   viewBox="0 0 22.577778 22.577778"
   version="1.1"
   id="svg831"
   inkscape:version="1.0 (4035a4fb49, 2020-05-01)"
   sodipodi:docname="01 - Apple.svg">
  <defs
     id="defs825">
    <pattern
       id="EMFhbasepattern"
       patternUnits="userSpaceOnUse"
       width="6"
       height="6"
       x="0"
       y="0" />
    <pattern
       id="EMFhbasepattern-9"
       patternUnits="userSpaceOnUse"
       width="6"
       height="6"
       x="0"
       y="0" />
    <pattern
       id="EMFhbasepattern-0"
       patternUnits="userSpaceOnUse"
       width="6"
       height="6"
       x="0"
       y="0" />
    <pattern
       id="EMFhbasepattern-7"
       patternUnits="userSpaceOnUse"
       width="6"
       height="6"
       x="0"
       y="0" />
    <pattern
       id="EMFhbasepattern-2"
       patternUnits="userSpaceOnUse"
       width="6"
       height="6"
       x="0"
       y="0" />
    <pattern
       id="EMFhbasepattern-98"
       patternUnits="userSpaceOnUse"
       width="6"
       height="6"
       x="0"
       y="0" />
    <pattern
       id="EMFhbasepattern-6"
       patternUnits="userSpaceOnUse"
       width="6"
       height="6"
       x="0"
       y="0" />
    <pattern
       id="EMFhbasepattern-01"
       patternUnits="userSpaceOnUse"
       width="6"
       height="6"
       x="0"
       y="0" />
    <pattern
       id="EMFhbasepattern-07"
       patternUnits="userSpaceOnUse"
       width="6"
       height="6"
       x="0"
       y="0" />
    <pattern
       id="EMFhbasepattern-8"
       patternUnits="userSpaceOnUse"
       width="6"
       height="6"
       x="0"
       y="0" />
    <pattern
       id="EMFhbasepattern-4"
       patternUnits="userSpaceOnUse"
       width="6"
       height="6"
       x="0"
       y="0" />
    <pattern
       id="EMFhbasepattern-40"
       patternUnits="userSpaceOnUse"
       width="6"
       height="6"
       x="0"
       y="0" />
    <pattern
       id="EMFhbasepattern-08"
       patternUnits="userSpaceOnUse"
       width="6"
       height="6"
       x="0"
       y="0" />
    <pattern
       id="EMFhbasepattern-04"
       patternUnits="userSpaceOnUse"
       width="6"
       height="6"
       x="0"
       y="0" />
    <pattern
       id="EMFhbasepattern-014"
       patternUnits="userSpaceOnUse"
       width="6"
       height="6"
       x="0"
       y="0" />
    <pattern
       id="EMFhbasepattern-27"
       patternUnits="userSpaceOnUse"
       width="6"
       height="6"
       x="0"
       y="0" />
    <pattern
       id="EMFhbasepattern-09"
       patternUnits="userSpaceOnUse"
       width="6"
       height="6"
       x="0"
       y="0" />
    <pattern
       id="EMFhbasepattern-5"
       patternUnits="userSpaceOnUse"
       width="6"
       height="6"
       x="0"
       y="0" />
    <pattern
       id="EMFhbasepattern-018"
       patternUnits="userSpaceOnUse"
       width="6"
       height="6"
       x="0"
       y="0" />
  </defs>
  <sodipodi:namedview
     id="base"
     pagecolor="#ffffff"
     bordercolor="#666666"
     borderopacity="1.0"
     inkscape:pageopacity="0.0"
     inkscape:pageshadow="2"
     inkscape:zoom="6.2578125"
     inkscape:cx="42.666667"
     inkscape:cy="42.666667"
     inkscape:document-units="pt"
     inkscape:current-layer="layer1"
     showgrid="false"
     units="pt"
     inkscape:window-width="1366"
     inkscape:window-height="705"
     inkscape:window-x="-8"
     inkscape:window-y="-8"
     inkscape:window-maximized="1"
     inkscape:pagecheckerboard="true"
     inkscape:showpageshadow="false"
     inkscape:object-paths="true"
     inkscape:snap-intersection-paths="true"
     inkscape:snap-smooth-nodes="true"
     inkscape:snap-midpoints="true"
     showguides="true"
     inkscape:snap-bbox="true"
     inkscape:bbox-nodes="true"
     inkscape:snap-nodes="false"
     inkscape:snap-global="true"
     inkscape:document-rotation="0">
    <inkscape:grid
       type="xygrid"
       id="grid1378" />
    <sodipodi:guide
       position="0.97013831,21.607643"
       orientation="78.000048,0"
       id="guide1380"
       inkscape:locked="false" />
    <sodipodi:guide
       position="0.97013831,0.97013129"
       orientation="0,78.000005"
       id="guide1382"
       inkscape:locked="false" />
    <sodipodi:guide
       position="21.607639,0.97013129"
       orientation="-78.000048,0"
       id="guide1384"
       inkscape:locked="false" />
    <sodipodi:guide
       position="21.607639,21.607643"
       orientation="0,-78.000005"
       id="guide1386"
       inkscape:locked="false" />
  </sodipodi:namedview>
  <metadata
     id="metadata828">
    <rdf:RDF>
      <cc:Work
         rdf:about="">
        <dc:format>image/svg+xml</dc:format>
        <dc:type
           rdf:resource="http://purl.org/dc/dcmitype/StillImage" />
        <dc:title></dc:title>
      </cc:Work>
    </rdf:RDF>
  </metadata>
  <g
     inkscape:label="Icon"
     inkscape:groupmode="layer"
     id="layer1"
     transform="translate(0,-274.42223)">
    <path
       id="path1212"
       style="color:#000000;font-style:normal;font-variant:normal;font-weight:normal;font-stretch:normal;font-size:medium;line-height:normal;font-family:sans-serif;font-variant-ligatures:normal;font-variant-position:normal;font-variant-caps:normal;font-variant-numeric:normal;font-variant-alternates:normal;font-variant-east-asian:normal;font-feature-settings:normal;font-variation-settings:normal;text-indent:0;text-align:start;text-decoration:none;text-decoration-line:none;text-decoration-style:solid;text-decoration-color:#000000;letter-spacing:normal;word-spacing:normal;text-transform:none;writing-mode:lr-tb;direction:ltr;text-orientation:mixed;dominant-baseline:auto;baseline-shift:baseline;text-anchor:start;white-space:normal;shape-padding:0;shape-margin:0;inline-size:0;clip-rule:nonzero;display:inline;overflow:visible;visibility:visible;isolation:auto;mix-blend-mode:normal;color-interpolation:sRGB;color-interpolation-filters:linearRGB;solid-color:#000000;solid-opacity:1;vector-effect:none;fill:#000000;fill-opacity:1;fill-rule:nonzero;stroke:none;stroke-width:0.529167;stroke-linecap:round;stroke-linejoin:round;stroke-miterlimit:4;stroke-dasharray:none;stroke-dashoffset:0;stroke-opacity:1;color-rendering:auto;image-rendering:auto;shape-rendering:auto;text-rendering:auto;enable-background:accumulate;stop-color:#000000"
       d="m 10.601876,275.42635 c -0.125315,0.01 -0.246318,0.042 -0.353852,0.10064 -0.215073,0.11722 -0.349663,0.29425 -0.4856549,0.49084 -0.8123076,1.17425 -1.1658166,2.6215 -1.0557136,4.0534 0.6929898,-0.0113 1.4282245,0.0128 2.0270205,-0.0113 -0.133057,-1.2862 0.240949,-2.333 0.935601,-3.29181 0.104848,-0.14472 0.158042,-0.32599 0.142189,-0.49084 -0.01586,-0.16487 -0.08931,-0.30234 -0.176601,-0.40969 -0.309818,-0.32705 -0.636109,-0.41879 -1.032989,-0.44151 z m -3.9832749,0.33826 c -0.722805,-0.006 -1.5766893,0.22268 -2.2451791,0.50839 -0.3349398,0.14315 -0.6181174,0.29573 -0.8271706,0.47592 -0.104535,0.0901 -0.1991068,0.18371 -0.2551639,0.33372 -0.05606,0.15001 -0.018748,0.38412 0.1006389,0.51292 1.1312145,1.2204 2.2057169,1.63607 3.1879177,1.65175 0.5178808,0.009 0.9990382,-0.0853 1.4563143,-0.20323 0.051374,-0.31587 0.1489005,-0.7003 0.2610047,-1.09597 -0.9624746,-0.18816 -1.9280874,-0.30164 -2.5074802,0.0182 -0.1606153,0.0887 -0.3630664,0.03 -0.4518941,-0.1305 -0.088665,-0.1606 -0.030018,-0.36242 0.130504,-0.45124 0.6128351,-0.33828 1.270674,-0.37868 1.9309297,-0.30191 0.2909762,0.0338 0.6889041,0.11572 1.0953189,0.20647 0.1107342,-0.34415 0.215326,-0.64194 0.31165,-0.89469 -0.2752161,-0.17635 -0.5167173,-0.31009 -0.7538006,-0.40644 -0.4491515,-0.1825 -0.8753356,-0.22298 -1.4335896,-0.22334 z m 6.9484919,4.6806 c -2.265229,0.38315 -4.6349924,0.37248 -6.9348591,0.12137 0.5868859,0.48082 1.1953661,0.93685 1.7952332,1.40179 0.7547113,0.40038 1.492057,0.48247 2.3016649,0.22075 l 1.293349,-0.43177 c 0.174071,-0.0573 0.361679,0.0371 0.419424,0.21102 0.05753,0.17332 -0.03553,0.36059 -0.208413,0.41943 l -1.298542,0.4324 c -6.65e-4,6.7e-4 -0.0014,10e-4 -0.002,0.003 -0.9709616,0.31389 -1.937621,0.2091 -2.8528944,-0.28309 l -1.7815938,-1.37955 -0.806397,-0.71225 c -1.2167646,0.0314 -2.1111982,0.48424 -2.7282351,1.08882 -0.6346522,0.62184 -0.9870575,1.38449 -1.2121868,1.99975 -0.80908643,1.93626 -0.72174797,4.50387 -0.059085,6.83163 0.6636797,2.33129 1.8990632,4.43498 3.5722892,5.37076 0.4393882,0.22734 0.9467575,0.22917 1.4407302,0.14869 0.9076508,-0.0759 1.5848237,-0.68729 2.3782794,-0.8947 -0.207903,-0.16885 -0.4106865,-0.35044 -0.6064192,-0.54604 -0.3767324,-0.37515 -0.3767324,-1.05778 0,-1.43294 l 9.3994895,-9.39105 c -0.1903,-0.79502 -0.739978,-1.58083 -1.242704,-2.0861 -0.635856,-0.62337 -1.56402,-1.08901 -2.867179,-1.09142 z m 5.762928,2.61267 c -0.08418,0.004 -0.164009,0.0382 -0.223351,0.098 l -0.966763,0.96611 0.236983,0.2279 c 1.136327,1.13548 1.553803,2.64382 1.399829,4.12416 -0.153976,1.48033 -0.865277,2.94443 -1.990015,4.06833 -2.249477,2.24782 -5.669588,2.56182 -7.9262955,0.30646 l -0.2136107,-0.24152 -0.8882007,0.8869 c -0.1306369,0.12996 -0.1306369,0.34139 0,0.47137 2.9554979,2.95339 7.4577739,2.56736 10.4220909,-0.39477 2.964328,-2.96212 3.350274,-7.46158 0.394757,-10.41494 -0.06474,-0.0652 -0.153585,-0.10064 -0.245424,-0.098 z m -15.7188433,0.12137 c 0.069962,-0.009 0.1438343,0.009 0.2395798,0.0234 0.1581985,0.094 0.2100006,0.29854 0.1155714,0.45644 -0.1289118,0.21623 -0.2418969,0.49856 -0.3239863,0.87846 -0.039469,0.17898 -0.2163365,0.29224 -0.3954048,0.25322 -0.179763,-0.0386 -0.2940845,-0.21573 -0.255164,-0.39541 0.094297,-0.4364 0.2304879,-0.78851 0.4025486,-1.07713 0.080843,-0.0932 0.1468927,-0.12962 0.2168553,-0.13895 z m 14.0580063,1.41281 -7.551664,7.54453 0.223996,0.25256 c 1.99522,1.98799 4.937113,1.71707 6.973817,-0.31814 1.01906,-1.01831 1.6644,-2.35177 1.801077,-3.66578 0.136442,-1.31173 -0.220216,-2.59343 -1.20245,-3.57813 z m -14.6326089,0.82003 c 0.2204852,0.041 0.3358339,0.21708 0.298662,0.39671 -0.188712,0.88624 -0.1756509,2.14637 0.132452,3.12364 0.055645,0.1748 -0.040825,0.36163 -0.2155586,0.41748 -0.1749894,0.0555 -0.3619096,-0.0412 -0.4174814,-0.2162 -0.3536387,-1.12171 -0.3649377,-2.45006 -0.1493292,-3.46257 0.031747,-0.14784 0.1592855,-0.25596 0.3512552,-0.25906 z m 13.6424729,2.7646 c 0.04897,-0.006 0.09958,0.0113 0.143489,0.0101 0.550765,0.14756 0.883204,0.71987 0.735624,1.27062 -0.147575,0.5508 -0.72252,0.88373 -1.273221,0.73627 -0.06349,-0.0166 -0.120641,-0.0516 -0.164265,-0.10064 l -0.839507,-0.95963 c -0.154598,-0.17773 -0.08044,-0.45542 0.142188,-0.5324 l 1.207647,-0.40969 c 0.01569,-0.009 0.03171,-0.0131 0.04804,-0.015 z m 6.65e-4,0.70186 -0.571358,0.19153 0.397353,0.45125 c 0.179664,0.0167 0.361005,-0.0533 0.409692,-0.23503 0.04846,-0.18087 -0.0732,-0.33186 -0.235687,-0.40775 z m -2.142592,0.75251 c 0.08272,-0.0134 0.17349,0.0156 0.290225,0.0552 l 0.95962,0.84146 c 0.04903,0.0436 0.08404,0.10077 0.100638,0.16426 0.147578,0.55075 -0.183486,1.12636 -0.734327,1.27387 -0.550764,0.14759 -1.12564,-0.18551 -1.273217,-0.73627 -0.01731,-0.063 -0.01572,-0.12951 0.0045,-0.19153 l 0.410337,-1.207 c 0.08476,-0.13049 0.159451,-0.1865 0.24218,-0.19997 z m 0.226595,0.8843 -0.191534,0.57201 c 0.07592,0.16245 0.22622,0.28419 0.407093,0.23569 0.181628,-0.0486 0.252381,-0.23077 0.235684,-0.41035 z" />
  </g>
</svg>
