<?xml version="1.0" encoding="UTF-8" standalone="no"?>
<!-- Created with Inkscape (http://www.inkscape.org/) -->

<svg
   width="64pt"
   height="64pt"
   viewBox="0 0 22.577778 22.577778"
   version="1.1"
   id="svg831"
   inkscape:version="1.1.1 (3bf5ae0d25, 2021-09-20)"
   sodipodi:docname="Export - Unblash - 64px.svg"
   inkscape:export-filename="C:\Users\User\Desktop\CARLOS PROJECT\2. FEBRUARI 1\DONE\15 - Apricot.png"
   inkscape:export-xdpi="576"
   inkscape:export-ydpi="576"
   xmlns:inkscape="http://www.inkscape.org/namespaces/inkscape"
   xmlns:sodipodi="http://sodipodi.sourceforge.net/DTD/sodipodi-0.dtd"
   xmlns="http://www.w3.org/2000/svg"
   xmlns:svg="http://www.w3.org/2000/svg"
   xmlns:rdf="http://www.w3.org/1999/02/22-rdf-syntax-ns#"
   xmlns:cc="http://creativecommons.org/ns#"
   xmlns:dc="http://purl.org/dc/elements/1.1/">
  <defs
     id="defs825">
    <pattern
       id="EMFhbasepattern"
       patternUnits="userSpaceOnUse"
       width="6"
       height="6"
       x="0"
       y="0" />
    <pattern
       id="EMFhbasepattern-9"
       patternUnits="userSpaceOnUse"
       width="6"
       height="6"
       x="0"
       y="0" />
    <pattern
       id="EMFhbasepattern-0"
       patternUnits="userSpaceOnUse"
       width="6"
       height="6"
       x="0"
       y="0" />
    <pattern
       id="EMFhbasepattern-7"
       patternUnits="userSpaceOnUse"
       width="6"
       height="6"
       x="0"
       y="0" />
    <pattern
       id="EMFhbasepattern-2"
       patternUnits="userSpaceOnUse"
       width="6"
       height="6"
       x="0"
       y="0" />
    <pattern
       id="EMFhbasepattern-98"
       patternUnits="userSpaceOnUse"
       width="6"
       height="6"
       x="0"
       y="0" />
    <pattern
       id="EMFhbasepattern-6"
       patternUnits="userSpaceOnUse"
       width="6"
       height="6"
       x="0"
       y="0" />
    <pattern
       id="EMFhbasepattern-01"
       patternUnits="userSpaceOnUse"
       width="6"
       height="6"
       x="0"
       y="0" />
    <pattern
       id="EMFhbasepattern-07"
       patternUnits="userSpaceOnUse"
       width="6"
       height="6"
       x="0"
       y="0" />
    <pattern
       id="EMFhbasepattern-8"
       patternUnits="userSpaceOnUse"
       width="6"
       height="6"
       x="0"
       y="0" />
    <pattern
       id="EMFhbasepattern-4"
       patternUnits="userSpaceOnUse"
       width="6"
       height="6"
       x="0"
       y="0" />
    <pattern
       id="EMFhbasepattern-40"
       patternUnits="userSpaceOnUse"
       width="6"
       height="6"
       x="0"
       y="0" />
    <pattern
       id="EMFhbasepattern-08"
       patternUnits="userSpaceOnUse"
       width="6"
       height="6"
       x="0"
       y="0" />
    <pattern
       id="EMFhbasepattern-04"
       patternUnits="userSpaceOnUse"
       width="6"
       height="6"
       x="0"
       y="0" />
    <pattern
       id="EMFhbasepattern-014"
       patternUnits="userSpaceOnUse"
       width="6"
       height="6"
       x="0"
       y="0" />
    <pattern
       id="EMFhbasepattern-27"
       patternUnits="userSpaceOnUse"
       width="6"
       height="6"
       x="0"
       y="0" />
    <pattern
       id="EMFhbasepattern-09"
       patternUnits="userSpaceOnUse"
       width="6"
       height="6"
       x="0"
       y="0" />
    <pattern
       id="EMFhbasepattern-5"
       patternUnits="userSpaceOnUse"
       width="6"
       height="6"
       x="0"
       y="0" />
    <pattern
       id="EMFhbasepattern-018"
       patternUnits="userSpaceOnUse"
       width="6"
       height="6"
       x="0"
       y="0" />
  </defs>
  <sodipodi:namedview
     id="base"
     pagecolor="#ffffff"
     bordercolor="#666666"
     borderopacity="1.0"
     inkscape:pageopacity="0.0"
     inkscape:pageshadow="2"
     inkscape:zoom="9.3164063"
     inkscape:cx="67.837316"
     inkscape:cy="66.710272"
     inkscape:document-units="pt"
     inkscape:current-layer="svg831"
     showgrid="false"
     units="pt"
     inkscape:window-width="1920"
     inkscape:window-height="1001"
     inkscape:window-x="-9"
     inkscape:window-y="41"
     inkscape:window-maximized="1"
     inkscape:pagecheckerboard="true"
     inkscape:showpageshadow="false"
     inkscape:object-paths="true"
     inkscape:snap-intersection-paths="true"
     inkscape:snap-smooth-nodes="true"
     inkscape:snap-midpoints="true"
     showguides="true"
     inkscape:snap-bbox="true"
     inkscape:bbox-nodes="true"
     inkscape:snap-nodes="true"
     inkscape:snap-global="true">
    <inkscape:grid
       type="xygrid"
       id="grid1378" />
    <sodipodi:guide
       position="0.97013831,21.607643"
       orientation="78.000048,0"
       id="guide1380"
       inkscape:locked="false" />
    <sodipodi:guide
       position="0.97013831,0.97013129"
       orientation="0,78.000005"
       id="guide1382"
       inkscape:locked="false" />
    <sodipodi:guide
       position="21.607639,0.97013129"
       orientation="-78.000048,0"
       id="guide1384"
       inkscape:locked="false" />
    <sodipodi:guide
       position="21.607639,21.607643"
       orientation="0,-78.000005"
       id="guide1386"
       inkscape:locked="false" />
  </sodipodi:namedview>
  <metadata
     id="metadata828">
    <rdf:RDF>
      <cc:Work
         rdf:about="">
        <dc:format>image/svg+xml</dc:format>
        <dc:type
           rdf:resource="http://purl.org/dc/dcmitype/StillImage" />
      </cc:Work>
    </rdf:RDF>
  </metadata>
  <g
     inkscape:label="Icon"
     inkscape:groupmode="layer"
     id="layer1"
     transform="translate(0,-274.42223)" />
  <path
     id="path20490"
     style="color:#000000;display:inline;fill:#000000;stroke-width:1;stroke-linecap:round;stroke-linejoin:round;-inkscape-stroke:none"
     d="m 2.2669653,1.9141075 c -0.1333217,0.092961 -0.1800468,0.2685912 -0.1105429,0.4155112 0,0 0.9467903,2.1006749 2.8383507,2.6075115 C 6.2195547,5.2218176 7.0980497,5.2168309 8.0535592,4.8356849 8.0172543,5.2314664 8.0087746,5.633021 8.0067411,6.0334494 7.5543515,5.8747584 7.0819072,5.772699 6.5872407,5.772699 c -3.0763694,0 -5.4926807,3.0965337 -5.4926799,6.825046 4.9e-6,3.728513 2.4163141,6.825047 5.4926799,6.825047 0.5941536,0 1.1573478,-0.151922 1.6789511,-0.381048 C 6.0813469,17.948687 4.6566953,16.197315 4.5890159,12.597745 4.5890159,9.5638829 6.102367,6.9624078 8.673249,6.0087387 8.6959276,4.662162 8.7756518,3.2696393 9.8684124,2.4278001 10.015923,2.3173551 10.045651,2.108089 9.9347388,1.9609256 9.8244111,1.8146563 9.6166354,1.7850156 9.4698083,1.8946 9.1334796,2.1468539 8.8726441,2.4415324 8.6712989,2.7633374 8.5484551,2.5650445 8.3882529,2.3765084 8.2018169,2.20412 7.6756831,1.7176178 6.9186915,1.314895 6.0293242,1.0765827 4.7281762,0.75430748 3.4043011,1.2012237 2.2669653,1.9141075 Z m 2.4891652,0.580025 c 1.310733,0 2.7200304,0.5291211 3.599796,0.9123032 C 8.2703913,3.6320138 8.2196426,3.8490479 8.1693041,4.0527866 7.3264398,3.6849422 5.9192796,3.1606402 4.7561305,3.1606402 4.5712417,3.1613638 4.4211776,3.0112996 4.421901,2.8264117 4.4222592,2.6422848 4.5720051,2.493413 4.7561305,2.4941325 Z M 16.083523,5.6257467 c -0.736881,0.5526644 -1.112307,1.3080433 -1.290101,2.1081176 -0.09656,0.4581812 -0.127199,0.8223576 -0.154123,1.2432803 0.114091,0.056687 0.218253,0.1146702 0.313421,0.1690659 0.329537,-0.1889863 0.762008,-0.4269148 1.369432,-0.4655803 0.601355,-0.4334919 1.273825,-0.8353095 1.968313,-0.9760281 0.19513,-0.036428 0.341988,0.071271 0.393402,0.2607517 0.03669,0.1805078 -0.08015,0.3565095 -0.260751,0.3927516 -0.312116,0.063243 -0.656818,0.2126904 -1.003338,0.4070584 0.703176,0.1382171 1.353196,0.4306935 1.931249,0.845327 C 20.470362,8.5166995 20.738665,6.8787815 20.738665,6.8787815 20.768441,6.7185943 20.677916,6.5603889 20.524731,6.5048871 19.822571,6.2922496 19.323629,6.2108756 18.63705,6.1875628 18.01002,6.187895 17.309264,6.3029125 16.673288,6.6700498 16.243995,6.9179025 15.864282,7.2012095 15.5451,7.504973 15.716822,6.9726216 15.998992,6.5227754 16.484064,6.1589513 16.631573,6.0484964 16.661302,5.8392336 16.550395,5.6920712 16.424148,5.5306986 16.240512,5.5215029 16.083527,5.6257467 Z m -2.163829,3.1318157 0.09269,-0.6189235 C 13.386446,7.198323 12.653989,6.7083415 11.915405,6.4756262 10.741169,6.1405861 9.4602453,6.3823222 8.386487,6.8319646 6.5881519,7.6963262 5.2555222,9.9387303 5.2555229,12.59775 c 3.7e-6,2.630654 1.3034021,4.849725 3.0860969,5.739776 -0.3438731,-0.886109 -0.5332071,-1.86858 -0.5332068,-2.88777 -1.3e-6,-3.615591 2.381263,-6.7749769 5.59932,-6.7749769 0.237956,0.00314 0.380246,0.041033 0.51196,0.082785 z M 4.3165602,8.4784027 C 4.4586867,8.5956902 4.4785053,8.806122 4.3607773,8.947885 3.405393,10.099494 3.0927854,11.394865 3.0927857,13.025616 3.0920699,13.209488 2.9424283,13.357965 2.758556,13.357245 2.5754448,13.356879 2.4269923,13.208726 2.4262773,13.025616 2.4262768,11.30662 2.77836,9.8108322 3.8470782,8.52262 3.9886322,8.363389 4.1750871,8.3680057 4.3165602,8.4784027 Z m 9.0658148,0.8115148 c -2.784057,0 -4.9640257,2.7977685 -4.9640244,6.1585375 -1.3e-6,3.360771 2.1799674,6.159189 4.9640244,6.159189 0.646004,0 1.145898,-0.361484 1.571009,-0.575472 0.424401,0.214478 0.920434,0.575472 1.565157,0.575472 2.784057,0 4.964675,-2.798418 4.964675,-6.159189 0,-3.360769 -2.180618,-6.1585375 -4.964675,-6.1585375 -0.644719,0 -1.140747,0.3603311 -1.565157,0.5748234 C 14.528273,9.6507393 14.028379,9.2899175 13.382375,9.2899175 Z m 1.666596,1.9982245 c 0.869678,0 1.513728,0.920477 1.954008,1.604822 0.536285,0.840693 0.946103,1.800867 0.946116,2.555491 -1.3e-5,0.754612 -0.409831,1.71545 -0.946116,2.556142 -0.475609,0.674739 -1.103547,1.607423 -1.954008,1.607423 -0.85046,0 -1.513004,-0.921821 -1.954008,-1.607423 -0.536286,-0.840692 -0.946101,-1.80153 -0.946117,-2.556142 1.6e-5,-0.754624 0.409831,-1.714798 0.946117,-2.555491 0.475814,-0.673658 1.084329,-1.604822 1.954008,-1.604822 z m 0,0.665857 c -0.548293,0 -1.014253,0.728846 -1.339519,1.219225 0.893728,-0.434579 1.882163,-0.436342 2.679039,0 -0.364402,-0.539085 -0.791226,-1.219225 -1.33952,-1.219225 z m 0,1.59247 c -1.261321,0 -2.234248,0.874674 -2.234267,1.901986 0,1.027314 0.97293,1.902639 2.234267,1.902639 1.261334,-1.2e-5 2.234267,-0.875325 2.234267,-1.902639 -2e-5,-1.027312 -0.972948,-1.901986 -2.234267,-1.901986 z M 3.0927856,13.950926 c 0.1838722,7.32e-4 0.3323482,0.150357 0.3316286,0.334229 -7.125e-4,0.182857 -0.1487714,0.330916 -0.3316286,0.331628 -0.1838722,7.33e-4 -0.3335126,-0.147756 -0.3342297,-0.331628 -7.223e-4,-0.184889 0.1493408,-0.334953 0.3342297,-0.334229 z m 10.6147154,3.773412 c 0.365,0.539364 0.649889,1.205759 1.34147,1.221825 0.691581,0.01607 1.016432,-0.731767 1.34147,-1.221825 -0.832752,0.405814 -1.8535,0.375943 -2.68294,0 z"
     sodipodi:nodetypes="cccccscscccccccccccccccccccccccccccccccccccccccsscccccccccscssscssszcsczcsczzcczscssscssccczcc" />
</svg>
