<?xml version="1.0" ?><svg xmlns="http://www.w3.org/2000/svg" xmlns:xlink="http://www.w3.org/1999/xlink" version="1.1" viewBox="0 0 64 64" style="enable-background:new 0 0 64 64;" xml:space="preserve"><style type="text/css">
	.Drop_x0020_Shadow{fill:none;}
	.Round_x0020_Corners_x0020_2_x0020_pt{fill:#FFFFFF;stroke:#231F20;stroke-miterlimit:10;}
	.Live_x0020_Reflect_x0020_X{fill:none;}
	.Bevel_x0020_Soft{fill:url(#SVGID_1_);}
	.Dusk{fill:#FFFFFF;}
	.Foliage_GS{fill:#FFDD00;}
	.Pompadour_GS{fill-rule:evenodd;clip-rule:evenodd;fill:#44ADE2;}
	.st0{fill:#FFFFFF;}
</style><linearGradient id="SVGID_1_" gradientUnits="userSpaceOnUse" x1="-81" y1="-245" x2="-80.2929" y2="-244.2929"><stop offset="0" style="stop-color:#DEDFE3"/><stop offset="0.1783" style="stop-color:#DADBDF"/><stop offset="0.3611" style="stop-color:#CECFD3"/><stop offset="0.546" style="stop-color:#B9BCBF"/><stop offset="0.7324" style="stop-color:#9CA0A2"/><stop offset="0.9181" style="stop-color:#787D7E"/><stop offset="1" style="stop-color:#656B6C"/></linearGradient><g id="Grid"/><g id="Object"><g><path d="M59.1,49C43.5,60.2,20.6,60.2,4.9,49c-0.6,1-1.6,2.8-2.2,3.9c16.7,12.1,42,12.1,58.7,0C61.3,52.8,59.4,49.4,59.1,49z"/><path d="M32,53.5c8.7-0.1,18.4-2.5,24.8-8.5C49.7,32.6,39.3,14.6,32,2l0,0l0,0C24.9,14.3,13.8,33.4,6.8,45.7c3.6,2.3,7.5,4,7.5,4    C19.8,52.2,25.8,53.5,32,53.5z M40.6,48.5c-1.8,0.7-4.1-4.7-2.4-5.5C40,42.3,42.3,47.7,40.6,48.5z M27.5,49    c-1.8-0.5-0.3-6.2,1.5-5.8C30.9,43.7,29.4,49.4,27.5,49z M29.3,36.7c-1.4,3.7-4,2.8-2.7-1C28,32,30.6,33,29.3,36.7z M23.2,26    c1.6-3.6,4.2-2.5,2.7,1.1c-0.4,1-1.7,2.6-2.5,2.2C22.4,28.9,22.7,27,23.2,26z M41.6,29.4c-2,0.5-4-4.6-2.4-5.5    C40.9,23.3,43.3,28.3,41.6,29.4z M18.4,43.2c-1.6,3.6-4.2,2.5-2.7-1.2c0.6-1.7,3.2-3.7,3.1-0.6C18.8,41.9,18.6,42.5,18.4,43.2z     M43.9,39.3C43.4,38.2,43,36.7,44,36c1.1-0.4,2.1,1.1,2.5,2.2C48.1,41.8,45.5,42.9,43.9,39.3z"/></g></g></svg>