<?xml version="1.0" ?><svg viewBox="0 0 512 512" xmlns="http://www.w3.org/2000/svg"><title/><g id="Icecream"><path d="M393.4026,223.955c0-2.0072.899-4.56,1.85-7.2615,1.6112-4.5746,3.4366-9.7568,1.7133-14.9987-1.6684-5.09-6.0762-8.1829-9.9659-10.91-.4333-.3035-.838-.6245-1.2675-.9308a127.6306,127.6306,0,0,0,.9512-14.7428c0-72.0723-58.635-130.7074-130.7074-130.7074-72.0748,0-130.71,58.6351-130.71,130.7074a127.3975,127.3975,0,0,0,.9413,14.7447c-.4233.3022-.8243.6188-1.25.9189-3.89,2.7268-8.3,5.82-9.9709,10.9072-1.7232,5.2469.1021,10.4316,1.7133,15.0062.9513,2.7044,1.85,5.2593,1.85,7.2665s-.8989,4.5621-1.8527,7.2665c-1.6087,4.5721-3.434,9.7517-1.7133,14.9962,1.6685,5.0875,6.0787,8.18,9.9684,10.91,2.4156,1.6958,4.6991,3.2971,5.86,4.9954,1.0334,1.5091,1.641,4.2533,2.2312,6.91,1.0285,4.6219,2.1914,9.8613,6.2032,13.5618,3.6357,3.3544,8.6286,4.1587,13.0339,4.8684,2.9484.4732,5.9965.9662,7.8193,2.1267,1.5589.9911,3.1651,3.429,4.7165,5.7848,2.5027,3.7976,5.3366,8.1032,10.0805,10.2324.2764.1248.569.1559.85.26l59.7843,148.0379a21.6816,21.6816,0,0,0,20.4423,13.7934h.0025a21.6837,21.6837,0,0,0,20.4448-13.7934L336.2007,305.87c.2814-.1043.574-.1354.8529-.26,4.7414-2.1292,7.5778-6.4348,10.0779-10.2324,1.549-2.3558,3.1527-4.7912,4.7091-5.78,1.8228-1.1605,4.8709-1.6511,7.8193-2.1242,4.4027-.7072,9.3957-1.5116,13.0289-4.8634,4.0143-3.7005,5.1772-8.9375,6.2057-13.5594.59-2.657,1.2028-5.4038,2.2362-6.9129,1.1605-1.7008,3.444-3.302,5.8645-4.9979,3.89-2.7293,8.2975-5.8221,9.9684-10.91,1.7208-5.2469-.1021-10.4316-1.7108-15.0061C394.3016,228.52,393.4026,225.9646,393.4026,223.955Zm-40.4912-19.1076a5.11,5.11,0,0,1-4.9357-6.3949,92.3054,92.3054,0,0,0,3.0082-23.341,5.1,5.1,0,1,1,10.2,0,102.3886,102.3886,0,0,1-3.3419,25.9258A5.1035,5.1035,0,0,1,352.9114,204.8474ZM151.3593,186.086a102.58,102.58,0,0,1-.5927-10.9745,104.2432,104.2432,0,0,1,8.808-42.1347,5.0991,5.0991,0,1,1,9.3383,4.0989,94.1227,94.1227,0,0,0-7.9463,38.0358A92.5,92.5,0,0,0,161.5,184.99a5.098,5.098,0,0,1-4.5223,5.6179,5.1988,5.1988,0,0,1-.5553.03A5.0983,5.0983,0,0,1,151.3593,186.086Zm9.0644,69.5423a5.1006,5.1006,0,0,1,4.8311-8.9848c3.4241,1.8428,5.7724,4.851,7.8417,7.5056,1.8727,2.4006,3.6432,4.6692,5.6977,5.4486,1.9125.7222,5.2245.3511,8.4245-.0174,3.82-.4358,8.148-.9289,12.1971.127,3.8972,1.016,7.0847,3.4689,9.8987,5.6329,2.5376,1.9523,4.9332,3.7976,7.2167,4.1711,2.1167.3487,5.0925-.58,8.25-1.5614,3.6581-1.1355,7.8019-2.423,12.0377-2.0917a5.1006,5.1006,0,1,1-.7968,10.17c-2.2861-.1768-5.17.7147-8.2178,1.6634-3.3294,1.0335-6.7485,2.0943-10.2847,2.0943a16.2832,16.2832,0,0,1-2.6322-.2091c-4.821-.787-8.5265-3.6358-11.7937-6.1509-2.2412-1.7258-4.36-3.3544-6.253-3.8474-2.2038-.5778-5.3888-.2142-8.4718.1369-4.41.5006-8.97,1.0185-13.1907-.58-4.724-1.79-7.5928-5.4686-10.1253-8.7133C163.4618,258.38,161.9577,256.4525,160.4237,255.6283ZM202.9022,96.3454a96.0954,96.0954,0,0,0-8.1058,6.1335,5.1,5.1,0,0,1-6.5792-7.7945,106.281,106.281,0,0,1,8.9674-6.7859,5.1,5.1,0,0,1,5.7176,8.4469Zm64.0612,353.74a11.67,11.67,0,0,1-10.9869,7.4134h-.0025a11.67,11.67,0,0,1-10.9844-7.4134l-57.9764-143.562c.4869-.062.9886-.1158,1.463-.1793,2.9983-.4084,6.0961-.8218,8.1481-.1893,1.8054.5578,4.0117,2.5675,6.1434,4.51,3.2871,2.9958,7.015,6.3925,11.973,7.3512,4.6916.9065,9.2737-.7769,13.3128-2.2611,2.8439-1.0459,5.7649-2.1516,7.8966-1.9349,1.91.1768,4.5,1.7307,7.005,3.23,3.77,2.2636,8.0459,4.8261,13.0214,4.8261s9.2537-2.5625,13.0264-4.8236c2.5052-1.5016,5.0951-3.0555,7.0076-3.2323,2.0942-.1943,5.0526.889,7.9015,1.9324,4.0416,1.4867,8.6336,3.1576,13.3128,2.2611,4.9555-.9587,8.6809-4.3529,11.9655-7.3487,2.1317-1.9448,4.3355-3.952,6.141-4.51,2.0494-.6275,5.1547-.2141,8.148.1893.4719.0641.9724.117,1.4568.1793Z"/><path d="M224.9251,347.0126a5.0994,5.0994,0,0,0-7.2117,7.2117l49.3739,49.3714a5.0994,5.0994,0,1,0,7.2117-7.2117Z"/><path d="M270.12,331.7176a5.0994,5.0994,0,1,0-7.2117,7.2117l21.5779,21.5779a5.0995,5.0995,0,0,0,7.2117-7.2118Z"/></g></svg>