<?xml version="1.0" ?><svg xmlns="http://www.w3.org/2000/svg" xmlns:xlink="http://www.w3.org/1999/xlink" version="1.1" viewBox="0 0 64 64" style="enable-background:new 0 0 64 64;" xml:space="preserve"><style type="text/css">
	.Drop_x0020_Shadow{fill:none;}
	.Round_x0020_Corners_x0020_2_x0020_pt{fill:#FFFFFF;stroke:#231F20;stroke-miterlimit:10;}
	.Live_x0020_Reflect_x0020_X{fill:none;}
	.Bevel_x0020_Soft{fill:url(#SVGID_1_);}
	.Dusk{fill:#FFFFFF;}
	.Foliage_GS{fill:#FFDD00;}
	.Pompadour_GS{fill-rule:evenodd;clip-rule:evenodd;fill:#44ADE2;}
	.st0{fill:#FFFFFF;}
</style><linearGradient id="SVGID_1_" gradientUnits="userSpaceOnUse" x1="-163" y1="-163" x2="-162.2929" y2="-162.2929"><stop offset="0" style="stop-color:#DEDFE3"/><stop offset="0.1783" style="stop-color:#DADBDF"/><stop offset="0.3611" style="stop-color:#CECFD3"/><stop offset="0.546" style="stop-color:#B9BCBF"/><stop offset="0.7324" style="stop-color:#9CA0A2"/><stop offset="0.9181" style="stop-color:#787D7E"/><stop offset="1" style="stop-color:#656B6C"/></linearGradient><g id="Grid"/><g id="Object"><g><path d="M49.3,15.1c-2.1,1.8-5.1,2.8-7.7,3.1c-0.3,0.3-0.6,0.6-0.8,1c2.2,2.4,3.3,5.9,2.7,9.2c3.6,0.5,6.8,2.9,8.4,6.2    C62.2,31,60.3,15.9,49.3,15.1z M55.4,28.2c-0.4,1.6-1.8,3-3.4,3.4c-1.2,0.3-2.7-0.6-2.3-2c0.2-0.5,0.6-0.8,1.1-1.1    c1-0.4,2.2-0.7,2.9-1.6c0.3-0.3,0.5-1.2,0.8-1.4C55.5,24.9,55.5,27.7,55.4,28.2z"/><path d="M25.5,42.4c0.1-0.1,0.2-0.1,0.3-0.2c0.2-1.5,2-2.3,2.1-3.9c0.1-0.4-0.2-1.3,0-1.6c0.6-1,2,1.3,2.2,1.8    c0.2,0.6,0.2,1.2,0.1,1.8c0.3,0,0.6-0.1,0.9-0.1c-0.2-1.7,0.1-3.5,0.7-5.1c-1.1-2.5-3.3-4.5-5.9-5.3c-0.2,0.3-0.3,0.6-0.5,0.9    c-0.1,0-0.1,0-0.2-0.1c0,0.1,0.1,0.1,0.1,0.2c-2.5,3.7-7.3,5.7-11.7,4.5C10.8,41,15.1,48.5,21.5,49C22,46.4,23.4,44,25.5,42.4z     M18.4,43.3c-0.8,0.9-3.6-1.4-2.8-2.4C16.3,40,19.1,42.4,18.4,43.3z"/><path d="M14.9,34.5c6.7,1.1,12.9-6,10.8-12.6c-0.5-1.6-1.4-3.2-2.6-4.4c-1.2-0.3-2.4-0.8-3.5-1.6c-2.6-2.4-6.8-1.2-9.5,0.8    C3,22.1,6.2,33.5,14.9,34.5z M13.1,29.5c0.1-0.9,1.1-0.2,1.5,0.1c0.8,0.6,1.7,1,2.8,1C16.4,31.6,13.3,31.1,13.1,29.5z"/><path d="M42,50.1c-3.5,0.1-7-1.7-9-4.5c-1.8,0.4-2.7-0.7-1-1.6c-0.4-0.9-0.8-1.8-0.9-2.8C19.1,42.8,19.6,60,31.7,61    c6,0.4,11.1-4.9,10.5-10.9H42z M28.7,57.5c-1.9-0.7-4.2-3.3-2.7-5.3c0.9-1,2.3-0.5,2.6,0.7c0.3,1,0.6,2.2,1.5,2.9    c0.3,0.3,1.2,0.6,1.3,0.9C31.9,57.8,29.2,57.7,28.7,57.5z"/><path d="M49.9,33.2c-4.4-6.3-14.5-4.9-17.2,2.2c-2.7,6.4,2.4,13.9,9.3,13.7C50,49.1,54.7,39.5,49.9,33.2z M43.3,45.4    c-0.9,0.4-1.6,0.3-2.5,0.2c-0.4-0.1-1.5-0.4-1.7-1.4c0.1-1,1.1-0.2,1.5,0.1c0.9,0.6,1.9,0.9,2.9,0.9    C43.5,45.2,43.4,45.3,43.3,45.4z"/><path d="M20.2,15.1c3,2,6.7,2.2,9.2,2c-1.4,0.5-2.6,1.2-3.6,2.2c0.4,0.8,0.8,1.7,1,2.6c0.6-0.7,1.7-1.3,2.7-0.9    c1.2,0.5,1.3,2,0.3,2.7c-0.9,0.7-1.9,1.3-2.3,2.4c-0.2,0.5,0,1.9-0.8,1.7c-0.1,0.3-0.2,0.7-0.4,1c2.5,0.9,4.7,2.7,6,5.1    c1.5-2.7,4.2-4.8,7.2-5.4c1-0.3,2-0.3,3-0.3c1.1-5.5-3.3-11.2-8.9-11.6c0,0,0-0.2,0-0.2c11.5,3.1,18.6-2.8,21.4-11.9    c-6.4-1.9-16-1.8-20.7,8.6C35.9,5.5,38,1,38,1l-6.1,1.3c1.9,3.5,0.8,10.4,0.2,13.5C29.4,5.4,21.5,3,13.7,4.7    C13.7,4.7,15,11.7,20.2,15.1z M37.8,23.5c1.2-0.6,3.1,2.3,2.2,3C38.8,27.1,36.9,24.1,37.8,23.5z"/></g></g></svg>