<?xml version="1.0" encoding="UTF-8" standalone="no"?>
<!-- Created with Inkscape (http://www.inkscape.org/) -->

<svg
   width="64pt"
   height="64pt"
   viewBox="0 0 22.577778 22.577778"
   version="1.1"
   id="svg831"
   inkscape:version="1.1.1 (3bf5ae0d25, 2021-09-20)"
   sodipodi:docname="Export - Unblash - 64px.svg"
   inkscape:export-filename="C:\Users\User\Desktop\CARLOS PROJECT\2. FEBRUARI 1\DONE\29 - Passion Fruit.png"
   inkscape:export-xdpi="576"
   inkscape:export-ydpi="576"
   xmlns:inkscape="http://www.inkscape.org/namespaces/inkscape"
   xmlns:sodipodi="http://sodipodi.sourceforge.net/DTD/sodipodi-0.dtd"
   xmlns="http://www.w3.org/2000/svg"
   xmlns:svg="http://www.w3.org/2000/svg"
   xmlns:rdf="http://www.w3.org/1999/02/22-rdf-syntax-ns#"
   xmlns:cc="http://creativecommons.org/ns#"
   xmlns:dc="http://purl.org/dc/elements/1.1/">
  <defs
     id="defs825">
    <pattern
       id="EMFhbasepattern"
       patternUnits="userSpaceOnUse"
       width="6"
       height="6"
       x="0"
       y="0" />
    <pattern
       id="EMFhbasepattern-9"
       patternUnits="userSpaceOnUse"
       width="6"
       height="6"
       x="0"
       y="0" />
    <pattern
       id="EMFhbasepattern-0"
       patternUnits="userSpaceOnUse"
       width="6"
       height="6"
       x="0"
       y="0" />
    <pattern
       id="EMFhbasepattern-7"
       patternUnits="userSpaceOnUse"
       width="6"
       height="6"
       x="0"
       y="0" />
    <pattern
       id="EMFhbasepattern-2"
       patternUnits="userSpaceOnUse"
       width="6"
       height="6"
       x="0"
       y="0" />
    <pattern
       id="EMFhbasepattern-98"
       patternUnits="userSpaceOnUse"
       width="6"
       height="6"
       x="0"
       y="0" />
    <pattern
       id="EMFhbasepattern-6"
       patternUnits="userSpaceOnUse"
       width="6"
       height="6"
       x="0"
       y="0" />
    <pattern
       id="EMFhbasepattern-01"
       patternUnits="userSpaceOnUse"
       width="6"
       height="6"
       x="0"
       y="0" />
    <pattern
       id="EMFhbasepattern-07"
       patternUnits="userSpaceOnUse"
       width="6"
       height="6"
       x="0"
       y="0" />
    <pattern
       id="EMFhbasepattern-8"
       patternUnits="userSpaceOnUse"
       width="6"
       height="6"
       x="0"
       y="0" />
    <pattern
       id="EMFhbasepattern-4"
       patternUnits="userSpaceOnUse"
       width="6"
       height="6"
       x="0"
       y="0" />
    <pattern
       id="EMFhbasepattern-40"
       patternUnits="userSpaceOnUse"
       width="6"
       height="6"
       x="0"
       y="0" />
    <pattern
       id="EMFhbasepattern-08"
       patternUnits="userSpaceOnUse"
       width="6"
       height="6"
       x="0"
       y="0" />
    <pattern
       id="EMFhbasepattern-04"
       patternUnits="userSpaceOnUse"
       width="6"
       height="6"
       x="0"
       y="0" />
    <pattern
       id="EMFhbasepattern-014"
       patternUnits="userSpaceOnUse"
       width="6"
       height="6"
       x="0"
       y="0" />
    <pattern
       id="EMFhbasepattern-27"
       patternUnits="userSpaceOnUse"
       width="6"
       height="6"
       x="0"
       y="0" />
    <pattern
       id="EMFhbasepattern-09"
       patternUnits="userSpaceOnUse"
       width="6"
       height="6"
       x="0"
       y="0" />
    <pattern
       id="EMFhbasepattern-5"
       patternUnits="userSpaceOnUse"
       width="6"
       height="6"
       x="0"
       y="0" />
    <pattern
       id="EMFhbasepattern-018"
       patternUnits="userSpaceOnUse"
       width="6"
       height="6"
       x="0"
       y="0" />
  </defs>
  <sodipodi:namedview
     id="base"
     pagecolor="#ffffff"
     bordercolor="#666666"
     borderopacity="1.0"
     inkscape:pageopacity="0.0"
     inkscape:pageshadow="2"
     inkscape:zoom="9.1757813"
     inkscape:cx="42.612175"
     inkscape:cy="42.666667"
     inkscape:document-units="pt"
     inkscape:current-layer="svg831"
     showgrid="false"
     units="pt"
     inkscape:window-width="1920"
     inkscape:window-height="1001"
     inkscape:window-x="-9"
     inkscape:window-y="41"
     inkscape:window-maximized="1"
     inkscape:pagecheckerboard="true"
     inkscape:showpageshadow="false"
     inkscape:object-paths="true"
     inkscape:snap-intersection-paths="true"
     inkscape:snap-smooth-nodes="true"
     inkscape:snap-midpoints="true"
     showguides="true"
     inkscape:snap-bbox="true"
     inkscape:bbox-nodes="true"
     inkscape:snap-nodes="false"
     inkscape:snap-global="true">
    <inkscape:grid
       type="xygrid"
       id="grid1378" />
    <sodipodi:guide
       position="0.97013831,21.607643"
       orientation="78.000048,0"
       id="guide1380"
       inkscape:locked="false" />
    <sodipodi:guide
       position="0.97013831,0.97013129"
       orientation="0,78.000005"
       id="guide1382"
       inkscape:locked="false" />
    <sodipodi:guide
       position="21.607639,0.97013129"
       orientation="-78.000048,0"
       id="guide1384"
       inkscape:locked="false" />
    <sodipodi:guide
       position="21.607639,21.607643"
       orientation="0,-78.000005"
       id="guide1386"
       inkscape:locked="false" />
  </sodipodi:namedview>
  <metadata
     id="metadata828">
    <rdf:RDF>
      <cc:Work
         rdf:about="">
        <dc:format>image/svg+xml</dc:format>
        <dc:type
           rdf:resource="http://purl.org/dc/dcmitype/StillImage" />
      </cc:Work>
    </rdf:RDF>
  </metadata>
  <g
     inkscape:label="Icon"
     inkscape:groupmode="layer"
     id="layer1"
     transform="translate(0,-274.42223)" />
  <path
     id="path10289"
     style="color:#000000;display:inline;fill:#000000;stroke-width:1;stroke-linecap:round;stroke-linejoin:round;-inkscape-stroke:none"
     d="m 13.169196,1.1137879 c -0.09856,0.1481956 -0.05827,0.3482336 0.08998,0.4467225 0.344182,0.2272752 0.557315,0.4787628 0.700286,0.7820767 0.165443,-0.012115 0.332364,-0.018233 0.500832,-0.018233 v -6.443e-4 c 0.06251,0 0.124766,0.00161 0.186869,0.00323 C 14.464032,1.8195039 14.13645,1.3682231 13.614031,1.0232592 13.404666,0.9149772 13.290883,0.98581007 13.169196,1.1137879 Z M 6.194038,1.877 C 5.8767238,3.1262521 5.3820567,5.362564 7.3504834,8.1638249 7.5152276,7.5588335 7.7423419,6.9815141 8.0237114,6.4417439 7.891253,6.4018239 7.7990712,6.2817869 7.7946868,6.1435101 7.7950094,5.9663313 7.9383953,5.8226844 8.1155743,5.821995 H 8.2848246 C 8.011335,5.3877942 7.7472158,4.8980303 7.4996003,4.3408932 7.428605,4.1786039 7.5019137,3.9894414 7.6638161,3.9174488 7.8750937,3.852221 8.0000082,3.9411581 8.0897769,4.0791453 8.2944895,4.5397554 8.5095002,4.9479946 8.7302881,5.3142361 9.1623014,4.7346972 9.6654377,4.2205791 10.225864,3.7890909 9.2449888,2.7654163 7.9505075,2.0383067 6.584073,1.6441323 6.3901396,1.6021345 6.2323119,1.6663279 6.194038,1.877 Z M 7.8840342,8.7363862 C 8.4732951,8.5647934 9.0900763,8.4711109 9.7206268,8.4664656 c 4.8300092,0 8.0519902,4.9368504 6.4787292,9.2792324 3.003119,-0.708632 5.026565,-3.82119 5.026565,-7.226823 3e-6,-4.1432962 -3.012223,-7.5407927 -6.487556,-7.5407958 -3.475332,-3.3e-6 -6.1374147,2.467588 -6.8543308,5.758307 z M 5.2854943,3.9029781 C 4.0886774,3.9026559 2.9493857,4.0686693 2.2515589,4.2169422 2.0684689,4.2556672 1.956785,4.4417111 2.0086951,4.6215089 c 0,0 0.8297476,3.0020464 3.2868661,4.4206621 C 5.5881221,9.2110772 5.8813433,9.3635766 6.1720163,9.4989605 6.4756105,9.3118789 6.7932599,9.1476021 7.1227189,9.0081945 6.72666,8.4912675 6.4239485,8.012772 6.1418154,7.5195384 L 5.9801156,7.6126605 C 5.8264888,7.7016975 5.6297817,7.649636 5.540316,7.4962604 5.4512757,7.3426335 5.5033339,7.1459264 5.6567128,7.0564576 l 0.1466009,-0.08494 C 5.3502096,6.7323009 4.8773871,6.4398206 4.3845016,6.0812205 4.2410834,5.9766367 4.2092878,5.7757417 4.3134013,5.6319821 4.3738613,5.5487881 4.4704107,5.499462 4.5732549,5.4992236 c 0.068056,3.22e-5 0.1343563,0.021616 0.1893848,0.061661 C 5.04226,5.7643153 5.3129763,5.9430758 5.5768084,6.1026139 5.3615845,5.3251664 5.2886867,4.566052 5.2854943,3.9029781 Z m 11.2485877,1.225027 c 1.332745,0.6941477 2.289402,1.8402497 2.782261,3.1195029 0.06395,0.1662776 -0.0192,0.3528886 -0.18561,0.4165217 -0.1661,0.063529 -0.352256,-0.019554 -0.415893,-0.1856093 C 18.276265,7.3400725 17.421706,6.3169713 16.234589,5.6986753 16.078123,5.6161644 16.017458,5.4229304 16.098686,5.2657954 16.197564,5.0824637 16.379814,5.0720004 16.534082,5.1280051 Z M 2.8983614,7.6711745 C 2.3772915,8.0814207 1.896905,8.5228793 1.4455727,8.9754776 c -0.1266603,0.127382 -0.1246792,0.333747 0.00441,0.4586741 0,0 1.1430802,1.1197533 2.8338554,1.7566883 0.00129,-0.0016 0.00258,-0.0029 0.00377,-0.0044 9.665e-4,-0.0013 0.00225,-0.0026 0.00323,-0.0038 C 4.6565,10.701106 5.1522977,10.247766 5.6026862,9.8890501 5.454133,9.8142452 5.3058924,9.7347306 5.15722,9.6518464 L 3.8044698,9.6864543 C 3.626534,9.6910286 3.478609,9.5504292 3.4741473,9.3724902 3.4695729,9.1945544 3.6101723,9.0466295 3.7881113,9.0421678 l 0.4297359,-0.01069 C 3.6931467,8.616855 3.2573933,8.1454434 2.8984419,7.6711745 Z m 6.8272975,1.4490131 c -3.305283,0.024354 -6.2227635,2.7882944 -6.2421534,6.2427844 -0.01936,3.449439 2.800839,6.244672 6.2446725,6.244672 3.444052,0 6.242153,-2.800616 6.242153,-6.244672 0,-3.453482 -2.933178,-6.2671578 -6.2446721,-6.2427844 z M 19.40443,10.197985 c 0.17693,6.44e-4 0.320195,0.143953 0.320884,0.320884 0,0.401973 -0.03509,0.794901 -0.104442,1.174691 -0.03183,0.175788 -0.200654,0.292091 -0.376254,0.259223 -0.174327,-0.03189 -0.290154,-0.198604 -0.259225,-0.373106 0.0624,-0.341682 0.09564,-0.697673 0.09564,-1.060808 6.44e-4,-0.177917 0.145486,-0.32158 0.323403,-0.320884 z m -9.676252,0.332838 c 2.664905,0 4.832148,2.167251 4.832148,4.832149 0,2.66491 -2.167243,4.832149 -4.832148,4.832149 -2.6649071,0 -4.8321485,-2.167239 -4.8321485,-4.832149 0,-2.664898 2.1672414,-4.832149 4.8321485,-4.832149 z m 0,0.644287 c -2.3167087,0 -4.187862,1.871159 -4.187862,4.187862 0,2.316703 1.8711533,4.187233 4.187862,4.187233 2.316707,0 4.187861,-1.87053 4.187861,-4.187233 0,-2.316703 -1.871154,-4.187862 -4.187861,-4.187862 z m 0.1617003,0.966429 c 0.1779157,6.44e-4 0.3215787,0.145486 0.3208827,0.323403 -6.44e-4,0.176931 -0.143952,0.320195 -0.3208827,0.320884 -0.1779168,6.44e-4 -0.3227077,-0.142967 -0.323403,-0.320884 -6.441e-4,-0.178899 0.1445036,-0.324105 0.323403,-0.323403 z M 8.4402338,12.26423 c 0.1779156,6.46e-4 0.3215791,0.145487 0.3208827,0.323403 -6.441e-4,0.176931 -0.1439521,0.320195 -0.3208827,0.320884 C 8.262317,12.909161 8.117526,12.76555 8.1168308,12.587633 8.1161867,12.408735 8.2613344,12.263529 8.4402338,12.26423 Z m 3.3825042,0.96643 c 0.177916,6.45e-4 0.321579,0.145487 0.320883,0.323403 -6.44e-4,0.176931 -0.143952,0.320195 -0.320883,0.320884 -0.177917,6.44e-4 -0.322708,-0.142967 -0.323403,-0.320884 -6.44e-4,-0.178898 0.144504,-0.324104 0.323403,-0.323403 z m -4.5100059,0.199453 c 0.1779168,6.44e-4 0.3215791,0.145486 0.3208839,0.323402 -6.441e-4,0.17693 -0.1439533,0.320194 -0.3208839,0.320883 -0.1779168,6.45e-4 -0.3227065,-0.142967 -0.323403,-0.320883 -6.441e-4,-0.178899 0.1445036,-0.324105 0.323403,-0.323402 z m 2.5771462,0.644285 c 0.1779157,6.45e-4 0.3215787,0.145487 0.3208827,0.323403 -6.44e-4,0.176931 -0.143952,0.320195 -0.3208827,0.320884 -0.1779168,6.44e-4 -0.3227077,-0.142967 -0.323403,-0.320884 -6.441e-4,-0.178899 0.1445036,-0.324105 0.323403,-0.323403 z m 2.5771447,0.644287 c 0.177917,6.44e-4 0.321581,0.145487 0.320884,0.323403 -6.44e-4,0.176931 -0.143953,0.320194 -0.320884,0.320884 -0.177915,6.44e-4 -0.322706,-0.142968 -0.323402,-0.320884 -6.44e-4,-0.178899 0.144505,-0.324105 0.323402,-0.323403 z m -5.7985775,0.644287 c 0.1779166,6.44e-4 0.3215801,0.145486 0.3208836,0.323402 C 6.988685,15.863306 6.8453762,16.006569 6.6684455,16.007258 6.490529,16.007902 6.3457386,15.864291 6.3450427,15.686374 6.3443984,15.507476 6.4895465,15.36227 6.6684455,15.362972 Z m 1.9328591,0 c 0.1779168,6.44e-4 0.3215803,0.145486 0.3208839,0.323402 -6.441e-4,0.176932 -0.1439533,0.320195 -0.3208839,0.320884 -0.1779156,6.44e-4 -0.3227065,-0.142967 -0.323403,-0.320884 -6.441e-4,-0.178898 0.1445048,-0.324104 0.323403,-0.323402 z m 2.5771464,0 c 0.177917,6.44e-4 0.321579,0.145486 0.320884,0.323402 -6.44e-4,0.176932 -0.143953,0.320195 -0.320884,0.320884 -0.177917,6.44e-4 -0.322706,-0.142967 -0.323403,-0.320884 -6.44e-4,-0.178898 0.144504,-0.324104 0.323403,-0.323402 z m 1.610088,0.967689 c 0.177913,6.44e-4 0.321579,0.145486 0.320884,0.323399 -6.45e-4,0.176934 -0.143951,0.320199 -0.320884,0.320888 -0.177917,6.44e-4 -0.32271,-0.142971 -0.323403,-0.320888 -6.44e-4,-0.178898 0.144504,-0.324102 0.323403,-0.323399 z m -5.1530358,0.320884 c 0.1779168,6.44e-4 0.3215827,0.145486 0.3208875,0.323403 -6.453e-4,0.176934 -0.1439533,0.320193 -0.3208875,0.320884 -0.1779132,6.44e-4 -0.3227041,-0.142971 -0.3233994,-0.320884 -6.44e-4,-0.1789 0.1445,-0.324102 0.3233994,-0.323403 z m 2.2543751,0 c 0.1779157,6.44e-4 0.3215787,0.145486 0.3208827,0.323403 -6.44e-4,0.17693 -0.143952,0.320193 -0.3208827,0.320884 -0.1779168,6.44e-4 -0.3227077,-0.142968 -0.323403,-0.320884 -6.441e-4,-0.1789 0.1445036,-0.324106 0.323403,-0.323403 z m 1.6113437,0 c 0.177917,6.44e-4 0.321583,0.145486 0.320888,0.323403 -6.44e-4,0.176934 -0.143953,0.320193 -0.320888,0.320884 -0.177913,6.44e-4 -0.322703,-0.142971 -0.323399,-0.320884 -6.44e-4,-0.1789 0.144501,-0.324102 0.323399,-0.323403 z m -0.967058,1.288572 c 0.177917,6.44e-4 0.321581,0.145486 0.320884,0.323403 -6.44e-4,0.176931 -0.143953,0.320195 -0.320884,0.320884 -0.177916,6.44e-4 -0.322707,-0.142967 -0.323403,-0.320884 -6.44e-4,-0.178899 0.144505,-0.324105 0.323403,-0.323403 z m -1.9334877,6.44e-4 c 0.1779169,6.46e-4 0.3215804,0.145488 0.3208839,0.323403 C 8.9212388,18.441343 8.7778553,18.584987 8.6006763,18.58568 8.422516,18.586324 8.2776191,18.442326 8.2772734,18.264164 8.2766293,18.085266 8.4217782,17.94006 8.6006763,17.940761 Z"
     sodipodi:nodetypes="cccccccccccccccccccccsccccscccsccccccccccccccccccccsccccccccccssscscccscsssssssssssssssssssssssssssssssssssssssssssssssssssssssssssssssssssssssssssssssscscscscccs" />
</svg>
