<?xml version="1.0" encoding="iso-8859-1"?>
<!-- Generator: Adobe Illustrator 16.0.0, SVG Export Plug-In . SVG Version: 6.00 Build 0)  -->
<!DOCTYPE svg PUBLIC "-//W3C//DTD SVG 1.1//EN" "http://www.w3.org/Graphics/SVG/1.1/DTD/svg11.dtd">
<svg version="1.1" id="Capa_1" xmlns="http://www.w3.org/2000/svg" xmlns:xlink="http://www.w3.org/1999/xlink" x="0px" y="0px"
	 width="612.018px" height="612.018px" viewBox="0 0 612.018 612.018" style="enable-background:new 0 0 612.018 612.018;"
	 xml:space="preserve">
<g>
	<g id="Aid_On">
		<g>
			<path d="M306.009,0.018C102.003,0.018,0,102.039,0,306.009C0,509.979,102.003,612,306.009,612s306.009-102.004,306.009-305.991
				C612.018,102.021,509.997,0.018,306.009,0.018z M507.604,436.027c0,0-6.945,1.763-13.477-1.476
				c-8.78-4.354-17.849-13.999-17.849-13.999s-15.205-14.034-28.844-14.286c-11.677-0.198-22.94,14.286-22.94,14.286
				s-14.449,11.246-14.251,22.941c0.216,13.639,14.251,28.843,14.251,28.843s9.68,9.032,14.017,17.85
				c3.221,6.531,1.439,13.477,1.439,13.477s-5.723,11.552-15.024,10.813c0.863,0.055-55.383-1.565-75.697-53.529
				c-8.097-20.71-6.999-50.003-6.999-50.003s1.421-14.215-1.422-24.345c-2.321-8.24-9.015-12.811-9.015-12.811l-45.522-45.505
				l-45.522-45.559c0,0-4.552-6.658-12.811-8.979c-10.13-2.843-24.363-1.458-24.363-1.458s-29.275,1.116-49.985-6.981
				c-52-20.314-53.62-76.561-53.547-75.679c-0.72-9.32,10.832-15.06,10.832-15.06s6.945-1.781,13.477,1.421
				c8.78,4.354,17.849,14.017,17.849,14.017s15.204,14.071,28.843,14.287c11.678,0.18,22.941-14.287,22.941-14.287
				s14.43-11.246,14.25-22.923c-0.216-13.657-14.25-28.861-14.25-28.861s-9.68-9.032-14.017-17.849
				c-3.221-6.514-1.439-13.441-1.439-13.441s5.722-11.552,15.042-10.814c-0.863-0.09,55.383,1.53,75.697,53.53
				c8.079,20.71,7,50.003,7,50.003s-1.422,14.196,1.421,24.345c2.321,8.241,9.014,12.811,9.014,12.811l45.522,45.504l45.523,45.522
				c0,0,4.569,6.693,12.811,9.015c10.13,2.825,24.363,1.403,24.363,1.403s29.274-1.062,49.984,7
				c52,20.313,53.619,76.542,53.548,75.715C519.174,430.287,507.604,436.027,507.604,436.027z"/>
		</g>
	</g>
</g>
<g>
</g>
<g>
</g>
<g>
</g>
<g>
</g>
<g>
</g>
<g>
</g>
<g>
</g>
<g>
</g>
<g>
</g>
<g>
</g>
<g>
</g>
<g>
</g>
<g>
</g>
<g>
</g>
<g>
</g>
</svg>
