<?xml version="1.0" ?><svg xmlns="http://www.w3.org/2000/svg" xmlns:xlink="http://www.w3.org/1999/xlink" version="1.1" id="Layer_1" viewBox="0 0 100 100" style="enable-background:new 0 0 100 100;" xml:space="preserve"><style type="text/css">
	.st0{fill:#FFCACA;}
	.st1{fill:#333333;}
</style><g><path class="st0" d="M52.1,48.4H22.8c-2,0-3.5-1.6-3.5-3.5V22.7c0-2,1.6-3.5,3.5-3.5h29.3c2,0,3.5,1.6,3.5,3.5v22.2   C55.6,46.9,54.1,48.4,52.1,48.4z"/><g><path class="st1" d="M78.3,57.8c0.4-0.6,0.6-1.3,0.6-2c0-1.9-1.5-3.4-3.4-3.4v-3.8c3.2-1.8,5.1-5.2,5.1-8.9c0-3.7-2-7.1-5.2-9    c-0.3-0.2-0.8-0.2-1.1,0c-0.3,0.2-0.5,0.6-0.5,1v7.1l-3.4,2.4L67,38.8v-7.1c0-0.4-0.2-0.8-0.5-1c-0.3-0.2-0.8-0.2-1.1,0    c-3.2,1.8-5.2,5.3-5.2,9c0,3.6,1.8,6.8,4.9,8.7h-4.7c-0.3,0-0.6,0.1-0.8,0.4l-4.9,5.2h-2.3v-0.4c0-1.2-1-2.3-2.3-2.3h-5.8    c-1.3,0-2.3,1-2.3,2.3v17.1c0,1.2,1,2.3,2.3,2.3h5.8c1.2,0,2.2-1,2.3-2.2h3l3,3c0.2,0.2,0.5,0.3,0.8,0.3h6.1v1.7    c0,2.8,2.3,5.1,5.1,5.1c2.8,0,5.1-2.3,5.1-5.1V74c1.8-0.1,3.2-1.6,3.2-3.5c0-0.7-0.2-1.4-0.6-2c0.8-0.6,1.3-1.6,1.3-2.8    c0-0.8-0.3-1.6-0.8-2.2c0.7-0.7,1.2-1.7,1.2-2.8C79.8,59.6,79.2,58.5,78.3,57.8z M62.3,39.6c0-2.2,0.9-4.3,2.5-5.8v5.5    c0,0.4,0.2,0.7,0.5,0.9l4.5,3.2c0.4,0.3,0.9,0.3,1.3,0l4.5-3.2c0.3-0.2,0.5-0.5,0.5-0.9v-5.5c1.6,1.5,2.5,3.6,2.5,5.8    c0,3.1-1.7,5.9-4.5,7.2c-0.4,0.2-0.6,0.6-0.6,1v4.5h-5.9v-2.9v-1.6c0-0.4-0.2-0.8-0.6-1C64.1,45.5,62.3,42.7,62.3,39.6z     M50.2,53.5v12.2h-6l0-12.3L50.2,53.5z M50.2,70.6C50.2,70.6,50.1,70.7,50.2,70.6h-6l0-2.7h6V70.6z M73.4,75.7    c0,1.6-1.3,2.9-2.9,2.9c-1.6,0-2.9-1.3-2.9-2.9V74h5.9V75.7z M70.9,64.5H76c0.7,0,1.2,0.6,1.2,1.3c0,0.7-0.6,1.2-1.2,1.2h-5.1    c-0.6,0-1.1,0.5-1.1,1.1s0.5,1.1,1.1,1.1h4.3c0.7,0,1.2,0.6,1.2,1.3c0,0.7-0.6,1.2-1.2,1.2h-0.8h-8.1h-6.8l-3-3    c-0.2-0.2-0.5-0.3-0.8-0.3h-3.4V56.1h2.8c0.3,0,0.6-0.1,0.8-0.4l4.9-5.2h4.5v1.8h-2.1c-0.6,0-1.1,0.5-1.1,1.1    c0,0.6,0.5,1.1,1.1,1.1h3.2h8.1h1.1c0.7,0,1.2,0.6,1.2,1.2c0,0.7-0.6,1.2-1.2,1.2h-4.4c-0.6,0-1.1,0.5-1.1,1.1    c0,0.6,0.5,1.1,1.1,1.1h5c0.9,0,1.6,0.7,1.6,1.6c0,0.9-0.7,1.6-1.6,1.6h-5.1c-0.6,0-1.1,0.5-1.1,1.1    C69.8,64.1,70.3,64.5,70.9,64.5z"/><path class="st1" d="M31.2,32.7h-4.1c-0.6,0-1.1,0.5-1.1,1.1c0,0.6,0.5,1.1,1.1,1.1h0.9v8.5c0,0.6,0.5,1.1,1.1,1.1    c0.6,0,1.1-0.5,1.1-1.1v-8.5h0.9c0.6,0,1.1-0.5,1.1-1.1C32.3,33.2,31.8,32.7,31.2,32.7z"/><path class="st1" d="M29.2,31.8c0.6,0,1.1-0.5,1.1-1.1v-6.1c0-0.6-0.5-1.1-1.1-1.1c-0.6,0-1.1,0.5-1.1,1.1v6.1    C28.1,31.3,28.6,31.8,29.2,31.8z"/><path class="st1" d="M39.5,30.9h-4.1c-0.6,0-1.1,0.5-1.1,1.1c0,0.6,0.5,1.1,1.1,1.1h0.9v5c0,0.6,0.5,1.1,1.1,1.1    c0.6,0,1.1-0.5,1.1-1.1v-5h0.9c0.6,0,1.1-0.5,1.1-1.1C40.6,31.4,40.1,30.9,39.5,30.9z"/><path class="st1" d="M37.5,30c0.6,0,1.1-0.5,1.1-1.1v-4.4c0-0.6-0.5-1.1-1.1-1.1c-0.6,0-1.1,0.5-1.1,1.1v4.4    C36.4,29.5,36.9,30,37.5,30z"/><path class="st1" d="M43.7,30.8h0.9v7.9c0,0.6,0.5,1.1,1.1,1.1c0.6,0,1.1-0.5,1.1-1.1v-7.9h0.9c0.6,0,1.1-0.5,1.1-1.1    c0-0.6-0.5-1.1-1.1-1.1h-4.1c-0.6,0-1.1,0.5-1.1,1.1C42.6,30.3,43.1,30.8,43.7,30.8z"/><path class="st1" d="M45.8,27.7c0.6,0,1.1-0.5,1.1-1.1v-2c0-0.6-0.5-1.1-1.1-1.1c-0.6,0-1.1,0.5-1.1,1.1v2    C44.7,27.2,45.2,27.7,45.8,27.7z"/></g></g></svg>